<svg xmlns="http://www.w3.org/2000/svg" viewBox="0 0 1280 360" width="1280" height="360" role="img" aria-label="PaperGlass: make your whole Windows screen look like e-ink paper">
  <defs>
    <linearGradient id="bg" x1="0" y1="0" x2="1" y2="1">
      <stop offset="0" stop-color="#F6F7FA"/>
      <stop offset="1" stop-color="#E9E6FF"/>
    </linearGradient>
    <radialGradient id="lamp" cx="1" cy="0.15" r="0.8">
      <stop offset="0" stop-color="#FFC460" stop-opacity="0.55"/>
      <stop offset="0.5" stop-color="#FFD59A" stop-opacity="0.18"/>
      <stop offset="1" stop-color="#FFE3BC" stop-opacity="0"/>
    </radialGradient>
  </defs>
  <rect width="1280" height="360" rx="28" fill="url(#bg)"/>
  <rect width="1280" height="360" rx="28" fill="url(#lamp)"/>
  <rect x="1" y="1" width="1278" height="358" rx="27" fill="none" stroke="#D5D9E4" stroke-width="2"/>
  <g transform="translate(88 86) scale(1.5)">
  <rect x="8" y="6" width="112" height="116" rx="30" fill="#FFFFFF" stroke="#262A3D" stroke-width="6"/>
  <rect x="22" y="20" width="84" height="74" rx="16" fill="#ECE9FF"/>
  <ellipse cx="48" cy="52" rx="5.5" ry="8" fill="#262A3D"/>
  <ellipse cx="80" cy="52" rx="5.5" ry="8" fill="#262A3D"/>
  <ellipse cx="36" cy="68" rx="8" ry="5" fill="#FF8CA5" opacity="0.75"/>
  <ellipse cx="92" cy="68" rx="8" ry="5" fill="#FF8CA5" opacity="0.75"/>
  <path d="M55 67 Q64 77 73 67" fill="none" stroke="#262A3D" stroke-width="4.5" stroke-linecap="round"/>
  <circle cx="64" cy="108" r="3.8" fill="#262A3D"/>
  </g>
  <text x="330" y="172" font-family="Segoe UI, Helvetica, Arial, sans-serif" font-size="98" font-weight="700" fill="#232733">PaperGlass</text>
  <text x="334" y="222" font-family="Segoe UI, Helvetica, Arial, sans-serif" font-size="31" fill="#6F7686">Make your whole Windows screen look like e-ink paper.</text>
  <g font-family="Segoe UI, Helvetica, Arial, sans-serif" font-size="22" font-weight="600" fill="#4B41C7">
    <rect x="334" y="256" width="150" height="46" rx="23" fill="#DDD8FF"/><text x="409" y="286" text-anchor="middle">E-ink look</text>
    <rect x="498" y="256" width="150" height="46" rx="23" fill="#DDD8FF"/><text x="573" y="286" text-anchor="middle">Desk lamp</text>
    <rect x="662" y="256" width="166" height="46" rx="23" fill="#DDD8FF"/><text x="745" y="286" text-anchor="middle">Night mode</text>
    <rect x="842" y="256" width="216" height="46" rx="23" fill="#DDD8FF"/><text x="950" y="286" text-anchor="middle">App exceptions</text>
  </g>
</svg>
